<?xml version="1.0" encoding="UTF-8" standalone="no"?>
<!-- Created with Inkscape (http://www.inkscape.org/) -->

<svg
   width="192"
   height="192"
   id="svg2"
   version="1.1"
   inkscape:version="1.4.2 (ebf0e940, 2025-05-08)"
   sodipodi:docname="Paw_icon~no_shadow~monochrome.svg"
   xmlns:inkscape="http://www.inkscape.org/namespaces/inkscape"
   xmlns:sodipodi="http://sodipodi.sourceforge.net/DTD/sodipodi-0.dtd"
   xmlns:xlink="http://www.w3.org/1999/xlink"
   xmlns="http://www.w3.org/2000/svg"
   xmlns:svg="http://www.w3.org/2000/svg"
   xmlns:rdf="http://www.w3.org/1999/02/22-rdf-syntax-ns#"
   xmlns:cc="http://creativecommons.org/ns#"
   xmlns:dc="http://purl.org/dc/elements/1.1/">
  <title
     id="title4048">Demyo Paw Icon</title>
  <defs
     id="defs4">
    <linearGradient
       id="linearGradient4032">
      <stop
         style="stop-color:#2196f3;stop-opacity:1;"
         offset="0"
         id="stop4034" />
      <stop
         style="stop-color:#2196f3;stop-opacity:0;"
         offset="1"
         id="stop4036" />
    </linearGradient>
    <linearGradient
       inkscape:collect="always"
       xlink:href="#linearGradient4032"
       id="linearGradient4038"
       x1="144.41176"
       y1="160.59215"
       x2="104.64169"
       y2="105.41699"
       gradientUnits="userSpaceOnUse" />
  </defs>
  <sodipodi:namedview
     id="base"
     pagecolor="#ffffff"
     bordercolor="#666666"
     borderopacity="1.0"
     inkscape:pageopacity="0.0"
     inkscape:pageshadow="2"
     inkscape:zoom="2.8232172"
     inkscape:cx="101.30287"
     inkscape:cy="85.540709"
     inkscape:document-units="px"
     inkscape:current-layer="layer3"
     showgrid="false"
     inkscape:window-width="1280"
     inkscape:window-height="682"
     inkscape:window-x="0"
     inkscape:window-y="25"
     inkscape:window-maximized="0"
     showguides="false"
     inkscape:guide-bbox="true"
     inkscape:showpageshadow="2"
     inkscape:pagecheckerboard="0"
     inkscape:deskcolor="#d1d1d1">
    <inkscape:grid
       type="xygrid"
       id="grid3843"
       empspacing="5"
       visible="true"
       enabled="true"
       snapvisiblegridlinesonly="true"
       originx="0"
       originy="0"
       spacingy="1"
       spacingx="1"
       units="px" />
    <sodipodi:guide
       orientation="1,0"
       position="95,160"
       id="guide3845"
       inkscape:locked="false" />
  </sodipodi:namedview>
  <metadata
     id="metadata7">
    <rdf:RDF>
      <cc:Work
         rdf:about="">
        <dc:format>image/svg+xml</dc:format>
        <dc:type
           rdf:resource="http://purl.org/dc/dcmitype/StillImage" />
        <dc:title>Demyo Paw Icon</dc:title>
        <cc:license
           rdf:resource="http://creativecommons.org/licenses/by-nc-sa/3.0/" />
        <dc:creator>
          <cc:Agent>
            <dc:title>Xavier 'Xr' Dalem</dc:title>
          </cc:Agent>
        </dc:creator>
        <dc:subject>
          <rdf:Bag>
            <rdf:li>demyo</rdf:li>
            <rdf:li>paw</rdf:li>
            <rdf:li>icon</rdf:li>
          </rdf:Bag>
        </dc:subject>
      </cc:Work>
      <cc:License
         rdf:about="http://creativecommons.org/licenses/by-nc-sa/3.0/">
        <cc:permits
           rdf:resource="http://creativecommons.org/ns#Reproduction" />
        <cc:permits
           rdf:resource="http://creativecommons.org/ns#Distribution" />
        <cc:requires
           rdf:resource="http://creativecommons.org/ns#Notice" />
        <cc:requires
           rdf:resource="http://creativecommons.org/ns#Attribution" />
        <cc:prohibits
           rdf:resource="http://creativecommons.org/ns#CommercialUse" />
        <cc:permits
           rdf:resource="http://creativecommons.org/ns#DerivativeWorks" />
        <cc:requires
           rdf:resource="http://creativecommons.org/ns#ShareAlike" />
      </cc:License>
    </rdf:RDF>
  </metadata>
  <g
     inkscape:groupmode="layer"
     id="layer3"
     inkscape:label="Bubble"
     style="display:inline">
    <path
       id="rect3066"
       style="display:inline;fill:#000000;fill-opacity:1;stroke:none"
       d="M 20.000002 32 C 13.352002 32 8.0000021 37.352 8.0000021 44 L 8.0000021 148 C 8.0000021 154.648 13.352002 160 20.000002 160 L 172 160 C 178.648 160 184 154.648 184 148 L 184 44 C 184 37.352 178.648 32 172 32 L 20.000002 32 z M 79.255861 45.5 A 16.425556 10.538504 87.814046 0 1 90.560549 61.255859 A 16.425556 10.538504 87.814046 0 1 80.826174 78.3125 A 16.425556 10.538504 87.814046 0 1 69.521486 62.556641 A 16.425556 10.538504 87.814046 0 1 79.255861 45.5 z M 110.80274 45.5 A 10.538504 16.425556 2.1859544 0 1 120.53711 62.556641 A 10.538504 16.425556 2.1859544 0 1 109.23242 78.3125 A 10.538504 16.425556 2.1859544 0 1 99.498049 61.255859 A 10.538504 16.425556 2.1859544 0 1 110.80274 45.5 z M 54.394533 72.634766 A 14.464286 10.535714 82.456513 0 1 65.359377 85.648438 A 14.464286 10.535714 82.456513 0 1 56.814455 101.37109 A 14.464286 10.535714 82.456513 0 1 44.470705 88.416016 A 14.464286 10.535714 82.456513 0 1 53.015627 72.693359 A 14.464286 10.535714 82.456513 0 1 54.394533 72.634766 z M 135.53711 72.634766 A 10.535714 14.464286 7.5434868 0 1 136.91602 72.693359 A 10.535714 14.464286 7.5434868 0 1 145.46289 88.416016 A 10.535714 14.464286 7.5434868 0 1 133.11914 101.37109 A 10.535714 14.464286 7.5434868 0 1 124.57227 85.648438 A 10.535714 14.464286 7.5434868 0 1 135.53711 72.634766 z M 95.000002 92 C 105 92 105 97 110 102 C 115 107 120 107 125 112 C 130 117 130 137 120 137 C 105 137 105 132 95.000002 132 C 85.000002 132 85.000002 137 70.000002 137 C 60.000002 137 60.000002 117 65.000002 112 C 70.000002 107 75.000002 107 80.000002 102 C 85.000002 97 85.000002 92 95.000002 92 z "
       transform="translate(-2.1175846e-6)" />
    <path
       transform="translate(-2.1175846e-6)"
       style="display:inline;fill:#000000;fill-opacity:1;fill-rule:nonzero;stroke:none"
       d="m 96.49936,159.39911 c 20,0 -6.02844,25.0814 -6.02844,25.0814 14.88675,0.0449 31.76327,-10.85758 39.7207,-17.05094 5.12627,-3.98984 7.96867,-6.55202 16.81854,-7.65165 3.92668,-0.4879 -13.33717,-15.51223 -19.44785,-13.02456 z"
       id="rect3838"
       inkscape:connector-curvature="0"
       sodipodi:nodetypes="ccsssc" />
  </g>
</svg>
